PathFileType	4	(X/Y/Z)	s05c0103.trc
DataRate	CameraRate	NumFrames	NumMarkers	Units	OrigDataRate	OrigDataStartFrame	OrigNumFrames
200	200	4	49	mm	200	750	2000
Frame#	Time	racr			lacr			c7			jug			rlel			rdr			llel			ldr			s2			lic			ric			lasi			rasi			rpsi			lpsi			rgt			lgt			rth1			rth2			rth3			rth4			rlfc			rsh1			rsh2			rsh3			rsh4			rlmal			rmmal			rcal			rtoe			rmt5			lth1			lth2			lth4			lth3			llfc			lmfc			lsh1			lsh2			lsh3			lsh4			llmal			lmmal			lcal			ltoe			lmt5			SBIKE			LBIKE			RBIKE			
		X1	Y1	Z1	X2	Y2	Z2	X3	Y3	Z3	X4	Y4	Z4	X5	Y5	Z5	X6	Y6	Z6	X7	Y7	Z7	X8	Y8	Z8	X9	Y9	Z9	X10	Y10	Z10	X11	Y11	Z11	X12	Y12	Z12	X13	Y13	Z13	X14	Y14	Z14	X15	Y15	Z15	X16	Y16	Z16	X17	Y17	Z17	X18	Y18	Z18	X19	Y19	Z19	X20	Y20	Z20	X21	Y21	Z21	X22	Y22	Z22	X23	Y23	Z23	X24	Y24	Z24	X25	Y25	Z25	X26	Y26	Z26	X27	Y27	Z27	X28	Y28	Z28	X29	Y29	Z29	X30	Y30	Z30	X31	Y31	Z31	X32	Y32	Z32	X33	Y33	Z33	X34	Y34	Z34	X35	Y35	Z35	X36	Y36	Z36	X37	Y37	Z37	X38	Y38	Z38	X39	Y39	Z39	X40	Y40	Z40	X41	Y41	Z41	X42	Y42	Z42	X43	Y43	Z43	X44	Y44	Z44	X45	Y45	Z45	X46	Y46	Z46	X47	Y47	Z47	X48	Y48	Z48	X49	Y49	Z49	
750	3.7500	470.016664	1249.593290	-169.382126	471.278178	1253.086903	-423.759563	458.461371	1319.795315	-300.689733	391.365830	1172.942617	-301.267662	491.053451	1029.882305	-6.043439	693.901849	918.554378	-86.614086	441.229535	1012.115644	-579.199791	672.149485	935.326929	-485.764073	-112.473440	1175.611351	-284.803630	27.212426	1176.896469	-433.765851	36.357960	1188.548097	-148.464741	72.576761	1122.136452	-394.237035	75.967408	1128.324159	-177.630102	-76.021784	1222.161561	-245.755132	-74.945963	1222.950863	-332.530620	-4.919834	1070.641339	-115.543670	-36.011612	1079.604430	-454.235409	90.121132	1002.072721	-99.436504	172.563258	968.221471	-93.989113	224.787246	897.093066	-92.651576	194.117462	995.228904	-106.926306	328.218569	789.703010	-110.034227	238.314995	728.474663	-83.230267	190.775181	654.676080	-98.092776	115.970309	612.372171	-103.914000	214.198809	635.833031	-122.570547	23.093176	519.605410	-112.868981	54.701981	535.576373	-191.976922	-49.441167	541.151514	-161.514853	149.879919	321.082376	-154.336975	59.691699	374.201507	-91.003974	66.000636	972.321885	-471.086191	145.334660	939.569723	-466.478753	168.392456	967.604846	-455.552684	198.817467	867.002915	-460.964312	303.144553	763.539486	-429.034243	290.209889	748.080054	-322.138092	268.139982	638.821211	-454.841913	276.725184	552.455634	-442.826832	240.241605	471.655670	-443.122429	305.694855	550.451224	-417.450239	224.931109	349.575727	-437.049218	0.000000	0.000000	-0.000000	164.510542	306.203736	-393.811421	459.379748	298.843480	-406.159690	351.043554	269.073079	-466.612484	-264.277274	892.632026	-286.514650	-53.421362	78.978319	-474.700960	-53.435733	79.174050	-77.064155	
751	3.7550	470.567902	1250.940495	-167.301239	472.697677	1253.967755	-422.539735	459.569444	1320.794069	-299.320006	392.332406	1173.830376	-300.082283	491.071706	1030.079189	-6.004369	694.068489	918.624752	-86.588828	443.402895	1014.185687	-580.064330	672.856186	935.221233	-485.656757	-111.267787	1176.043476	-286.992742	29.484802	1176.906801	-434.989975	36.468825	1189.755263	-149.795121	74.371311	1122.021061	-395.026617	76.525941	1129.698281	-178.630656	-75.166814	1222.417709	-247.728448	-73.453291	1223.094124	-334.652885	-3.777503	1073.019585	-116.374876	-34.508462	1078.897427	-455.201456	91.732938	1005.685799	-99.004472	175.044947	973.607472	-93.987932	228.766924	903.589654	-92.272884	195.952918	1000.871989	-107.363584	334.061031	798.296295	-109.997009	243.391347	737.266325	-83.560143	196.052230	663.664920	-98.354252	121.018927	621.741280	-104.531951	218.780583	644.541356	-123.094120	27.757754	529.781018	-113.301920	59.485200	545.365890	-192.428586	-44.214443	551.730534	-161.672910	153.132070	330.222998	-154.503708	63.389339	384.237117	-91.221177	65.707610	969.816291	-472.173837	144.218644	934.884875	-467.142193	167.997491	962.192617	-456.308946	195.706143	860.896486	-461.457257	297.180943	754.933065	-429.244113	283.618504	739.419801	-322.620098	262.422088	629.789763	-455.508889	272.036013	543.470279	-443.392006	236.552874	462.347191	-443.650042	301.049927	541.976281	-418.128404	222.553515	340.944002	-437.428374	0.000000	0.000000	-0.000000	161.961880	298.346864	-394.192170	456.802127	288.087084	-405.966930	348.183590	259.301206	-466.513496	-264.263194	892.692498	-286.581305	-53.380299	78.998856	-474.702914	-53.395313	79.192615	-77.084792	
752	3.7600	470.990235	1251.651388	-166.205461	474.246952	1254.910600	-421.472681	460.668606	1321.563799	-298.022631	393.326939	1174.837300	-298.874749	491.420361	1030.231868	-5.855646	694.279166	918.734944	-86.571767	445.765489	1016.296127	-580.964842	673.571021	935.063291	-485.382975	-110.037166	1176.500666	-289.279412	31.707715	1176.728657	-436.163600	36.555761	1190.927833	-151.149786	76.177044	1121.916601	-395.800628	77.263293	1131.058802	-179.474027	-74.109618	1222.965734	-249.610381	-72.015963	1223.182846	-336.833510	-2.690004	1075.244191	-117.192190	-32.896724	1078.227293	-456.177158	93.637187	1009.352259	-98.735719	177.535923	979.013916	-94.324973	232.715283	910.429718	-92.068022	197.660961	1006.743831	-108.164089	339.906584	806.947835	-109.846553	249.045026	746.085304	-83.700610	201.496414	672.671270	-98.661773	126.297665	631.073621	-105.015685	224.193671	653.344272	-123.275764	32.831643	539.682462	-113.749448	64.645456	555.114081	-192.825191	-39.257429	561.665982	-162.467820	157.048042	339.443440	-154.628603	67.659283	393.890636	-91.530004	65.497140	967.271514	-473.165461	142.977480	930.209566	-467.879901	167.470223	956.893468	-457.091983	192.436460	854.848045	-461.969909	291.072767	746.424791	-429.771422	277.537656	731.284681	-323.350453	256.482504	620.955072	-456.283399	266.979217	534.839967	-444.012507	232.327085	453.244075	-444.141576	295.997991	533.710084	-418.806070	219.655645	332.736333	-437.856836	0.000000	0.000000	-0.000000	158.804887	290.701216	-394.559306	453.590999	277.575152	-405.722342	344.826788	249.810368	-466.454907	-264.157570	892.723640	-286.681065	-53.356177	79.019290	-474.711536	-53.363664	79.207077	-77.089469	
753	3.7650	471.456506	1252.462121	-165.080558	475.603803	1255.890647	-420.276994	461.672469	1322.380091	-296.670302	394.344893	1175.452320	-297.591220	491.820802	1030.377878	-5.652788	694.531877	918.889879	-86.559357	448.141161	1018.492744	-582.021985	674.367231	934.870321	-485.214701	-108.764528	1176.795159	-291.523804	33.997952	1176.829627	-437.564138	36.532954	1192.172911	-152.504659	77.977378	1121.813840	-396.555317	78.115015	1132.742933	-179.994503	-73.235434	1223.501189	-252.066968	-70.567823	1223.357572	-339.018697	-1.699579	1077.532734	-118.183206	-31.243258	1077.584614	-457.123561	95.467858	1013.300579	-98.885654	179.905155	984.874128	-94.921482	236.620248	917.457703	-92.060447	199.342213	1012.692112	-109.114116	345.729605	815.832547	-109.815719	254.625143	754.987063	-84.172522	207.057529	681.804210	-98.857971	131.743240	640.392323	-105.416091	230.345783	662.330315	-123.183341	38.207893	549.312318	-114.134922	69.431116	564.846411	-193.079882	-33.812246	571.634883	-162.576402	161.475615	348.406401	-154.859821	72.418724	403.456647	-91.817382	65.218070	964.726974	-474.147578	141.600276	925.617271	-468.667416	166.828150	951.575761	-457.839968	189.011526	848.923783	-462.515130	284.811060	738.075671	-430.300897	270.003567	723.466191	-323.477233	250.487379	612.484898	-457.278609	261.524735	526.680605	-444.723547	227.648585	444.542710	-444.681988	291.030730	525.957532	-420.343270	216.173520	324.821919	-438.281786	0.000000	0.000000	-0.000000	155.154312	283.420671	-394.967560	449.861801	267.287832	-405.444683	340.897982	240.468153	-466.421408	-264.044250	892.753876	-286.785003	-53.314845	79.057393	-474.725919	-53.343014	79.238259	-77.107666	
